<svg width="245" height="374" viewBox="0 0 245 374" fill="none" xmlns="http://www.w3.org/2000/svg">
<g filter="url(#filter0_f_1018_31)">
<path d="M40 19C40 11.8203 45.8203 6 53 6H226C233.18 6 239 11.8203 239 19V19C239 26.1797 233.18 32 226 32H53C45.8203 32 40 26.1797 40 19V19Z" fill="#E8E2DA" fill-opacity="0.88"/>
<path d="M6 429.5C6 411.827 20.3269 397.5 38 397.5H200C217.673 397.5 232 411.827 232 429.5C232 447.173 217.673 461.5 200 461.5H38C20.3269 461.5 6 447.173 6 429.5Z" fill="#E8E2DA" fill-opacity="0.88"/>
<path d="M53 7H226C232.627 7 238 12.3726 238 19C238 25.6274 232.627 31 226 31H53C46.3726 31 41 25.6274 41 19C41 12.3726 46.3726 7 53 7ZM38 398.5H200C217.121 398.5 231 412.379 231 429.5C231 446.621 217.121 460.5 200 460.5H38C20.8792 460.5 7 446.621 7 429.5C7 412.379 20.8792 398.5 38 398.5Z" stroke="white" stroke-opacity="0.58" stroke-width="2"/>
</g>
<defs>
<filter id="filter0_f_1018_31" x="0" y="0" width="245" height="467.5" filterUnits="userSpaceOnUse" color-interpolation-filters="sRGB">
<feFlood flood-opacity="0" result="BackgroundImageFix"/>
<feBlend mode="normal" in="SourceGraphic" in2="BackgroundImageFix" result="shape"/>
<feGaussianBlur stdDeviation="3" result="effect1_foregroundBlur_1018_31"/>
</filter>
</defs>
</svg>
