<svg width="211" height="38" viewBox="0 0 211 38" fill="none" xmlns="http://www.w3.org/2000/svg">
<g filter="url(#filter0_f_1018_29)">
<path d="M6 19C6 11.8203 11.8203 6 19 6H192C199.18 6 205 11.8203 205 19V19C205 26.1797 199.18 32 192 32H19C11.8203 32 6 26.1797 6 19V19Z" fill="#E8E2DA" fill-opacity="0.88"/>
<path d="M19 7H192C198.627 7 204 12.3726 204 19C204 25.6274 198.627 31 192 31H19C12.3726 31 7 25.6274 7 19C7 12.3726 12.3726 7 19 7Z" stroke="white" stroke-opacity="0.58" stroke-width="2"/>
</g>
<defs>
<filter id="filter0_f_1018_29" x="0" y="0" width="211" height="38" filterUnits="userSpaceOnUse" color-interpolation-filters="sRGB">
<feFlood flood-opacity="0" result="BackgroundImageFix"/>
<feBlend mode="normal" in="SourceGraphic" in2="BackgroundImageFix" result="shape"/>
<feGaussianBlur stdDeviation="3" result="effect1_foregroundBlur_1018_29"/>
</filter>
</defs>
</svg>
