<svg width="43" height="42" viewBox="0 0 43 42" fill="none" xmlns="http://www.w3.org/2000/svg">
<path d="M24.2774 38.2358L4.00887 17.9756L18.954 3.55272M24.2774 38.2358L38.8589 23.6667L18.954 3.55272M24.2774 38.2358L21.5992 41L18.954 37.878M18.954 3.55272L21.5992 1L24.2774 3.63415M18.954 37.878L38.8589 17.9756L24.2774 3.63415M18.954 37.878L4.00887 23.6667L24.2774 3.63415M22.3266 16.6098H24.2774L21.1694 21.3252M21.1694 21.3252V25.8455M21.1694 21.3252L18.5242 16.6098M28.1129 4.93496L37.7347 14.4309V27.3089L28.4766 36.4146H14.6556L5.49677 27.3089V14.4309L14.6556 5.29268L28.1129 4.93496ZM21.5992 3.55272L40.6444 22.1707L42 20.8374L40.6444 19.3089L21.5992 37.878L2.4879 19.3089L1 20.8374L2.4879 22.1707L21.5992 3.55272Z" stroke="white"/>
</svg>
