<svg width="487" height="483" viewBox="0 0 487 483" fill="none" xmlns="http://www.w3.org/2000/svg">
<path d="M276.084 447.037L38.2992 205.434L213.631 33.4412M276.084 447.037L447.149 273.3L213.631 33.4412M276.084 447.037L244.664 480L213.631 442.771M213.631 33.4412L244.664 3L276.084 34.4122M213.631 442.771L447.149 205.434L276.084 34.4122M213.631 442.771L38.2992 273.3L276.084 34.4122M253.198 189.146H276.084L239.621 245.378M239.621 245.378V299.283M239.621 245.378L208.589 189.146M321.081 49.9244L433.96 163.163V316.734L325.348 425.319H163.204L55.7548 316.734V163.163L163.204 54.1902L321.081 49.9244ZM244.664 33.4412L468.096 255.461L484 239.561L468.096 221.334L244.664 442.771L20.4556 221.334L3 239.561L20.4556 255.461L244.664 33.4412Z" stroke="white" stroke-width="3"/>
</svg>
