<svg width="411" height="65" viewBox="0 0 411 65" fill="none" xmlns="http://www.w3.org/2000/svg">
<path d="M2 2L23.4977 34.2465M23.4977 34.2465V64.8644M23.4977 34.2465L44.0182 2H29.6864" stroke="white" stroke-width="3"/>
<path d="M80.4323 34.823L99.3242 16.9083C99.6499 13.4339 96.3276 6.61549 80.4323 7.13665C64.5371 7.65781 62.9519 25.8114 64.4719 34.823C65.6257 41.6632 67.0314 51.7143 71.6378 56.3207C73.2664 57.9493 80.4323 63.1609 99.3242 56.3207" stroke="white" stroke-width="3"/>
<path d="M150.393 12.2932C144.964 7.51591 130.849 0.567121 120.752 12.2932C114.501 19.5524 130.198 31.185 145.833 36.3966C152.167 38.508 157.298 47.6666 145.833 56.2657C134.367 64.8647 123.032 59.8486 119.449 56.2657" stroke="white" stroke-width="3"/>
<path d="M172.641 59.4901L192.184 7.37451L213.682 59.4901H200.328" stroke="white" stroke-width="3"/>
<path d="M233.682 8.67725V58.187H261.694" stroke="white" stroke-width="3"/>
<path d="M281.694 9.6543L301.563 57.2097L315.895 24.9632L328.598 57.2097L348.142 9.6543H328.598" stroke="white" stroke-width="3"/>
<path d="M368.142 57.6986L386.056 9.16602L408.531 57.6986H394.199" stroke="white" stroke-width="3"/>
</svg>
